<svg fill="#000000" viewBox="0 0 1069 1069" style="fill-rule:evenodd;clip-rule:evenodd;stroke-linejoin:round;stroke-miterlimit:2;" version="1.1" xml:space="preserve" xmlns="http://www.w3.org/2000/svg" xmlns:serif="http://www.serif.com/" xmlns:xlink="http://www.w3.org/1999/xlink"><g id="SVGRepo_bgCarrier" stroke-width="0"></g><g id="SVGRepo_tracerCarrier" stroke-linecap="round" stroke-linejoin="round"></g><g id="SVGRepo_iconCarrier"> <rect height="1066.67" id="Console" style="fill:none;" width="1066.67" x="1.397" y="0.592"></rect> <g> <path d="M434.469,693.912l200.523,-0c13.34,46.165 44.047,85.433 85.747,109.508c42.759,24.687 93.575,31.377 141.267,18.598c0.035,-0.01 0.071,-0.019 0.106,-0.029c47.692,-12.779 88.355,-43.98 113.042,-86.74c24.687,-42.759 31.377,-93.575 18.598,-141.267c-17.208,-64.223 -37.272,-139.1 -54.48,-203.323c-12.779,-47.692 -43.98,-88.355 -86.74,-113.042c-42.76,-24.687 -93.575,-31.377 -141.267,-18.598c-0.036,0.009 -0.071,0.019 -0.107,0.029c-27.438,7.351 -52.55,20.801 -73.63,39.042c0.013,-0.012 -205.608,-0.012 -205.608,-0.012c-21.055,-18.223 -46.172,-31.677 -73.617,-39.031c-0.035,-0.009 -0.071,-0.019 -0.106,-0.028c-47.692,-12.779 -98.508,-6.089 -141.267,18.598c-42.76,24.687 -73.961,65.35 -86.74,113.042c-17.209,64.223 -37.272,139.1 -54.481,203.323c-12.779,47.692 -6.089,98.508 18.598,141.267c24.688,42.76 65.35,73.961 113.042,86.74c0.036,0.01 0.071,0.019 0.107,0.029c47.692,12.779 98.507,6.089 141.267,-18.598c41.699,-24.075 72.406,-63.343 85.746,-109.508Zm254.788,-38.789c-7.111,-24.401 -29.867,-23.713 -30.333,-23.711c-125.182,0.391 -248.387,-0 -248.387,-0c-16.192,0.388 -27,11.117 -30.332,23.711c-2.122,8.02 -3.362,12.53 -4.992,18.63c-2.627,9.835 -2.635,9.833 -0.12,0.449c-8.489,31.681 -29.216,58.692 -57.62,75.091c-28.404,16.399 -62.16,20.843 -93.841,12.354l-0.107,-0.028c-31.681,-8.489 -58.692,-29.215 -75.091,-57.62c-16.399,-28.404 -20.843,-62.16 -12.354,-93.841c17.208,-64.223 37.271,-139.1 54.48,-203.323c8.489,-31.681 29.215,-58.692 57.62,-75.092c28.404,-16.399 62.16,-20.843 93.84,-12.354l0.107,0.029c21.15,5.667 40.219,16.788 55.438,32.007c5.861,5.861 13.809,9.153 22.097,9.153l230.137,0c8.288,0 16.237,-3.292 22.097,-9.153c15.219,-15.219 34.288,-26.34 55.438,-32.007l0.107,-0.029c31.681,-8.489 65.437,-4.045 93.841,12.354c28.404,16.4 49.131,43.411 57.62,75.092c17.208,64.223 37.271,139.1 54.48,203.323c8.489,31.681 4.045,65.437 -12.354,93.841c-16.4,28.405 -43.411,49.131 -75.092,57.62l-0.107,0.028c-31.681,8.489 -65.436,4.045 -93.841,-12.354c-28.124,-16.238 -48.721,-42.879 -57.365,-74.156l-5.366,-20.014Zm-254.973,38.789l-0.014,-0l-0.085,0.229l-0.654,1.495c0.268,-0.564 0.52,-1.139 0.753,-1.724Zm-149.553,-233.128l-31.026,0c-17.247,0 -31.25,14.003 -31.25,31.25c0,17.247 14.003,31.25 31.25,31.25l31.026,0l-0,31.026c-0,17.247 14.002,31.25 31.25,31.25c17.247,-0 31.25,-14.003 31.25,-31.25l-0,-31.026l31.025,0c17.248,0 31.25,-14.003 31.25,-31.25c0,-17.247 -14.002,-31.25 -31.25,-31.25l-31.025,0l-0,-31.026c-0,-17.247 -14.003,-31.25 -31.25,-31.25c-17.248,0 -31.25,14.003 -31.25,31.25l-0,31.026Z"></path> <path d="M720.632,552.486c-0,-18.253 14.819,-33.073 33.073,-33.073c18.254,0 33.073,14.82 33.073,33.073c0,18.254 -14.819,33.074 -33.073,33.074c-18.254,-0 -33.073,-14.82 -33.073,-33.074Zm93.525,-93.525c18.254,-0 33.074,14.819 33.074,33.073c-0,18.254 -14.82,33.073 -33.074,33.073c-18.253,0 -33.073,-14.819 -33.073,-33.073c0,-18.254 14.82,-33.073 33.073,-33.073Zm-120.904,-0c18.253,-0 33.073,14.819 33.073,33.073c-0,18.254 -14.82,33.073 -33.073,33.073c-18.254,0 -33.074,-14.819 -33.074,-33.073c0,-18.254 14.82,-33.073 33.074,-33.073Zm27.379,-27.379c-0,-18.254 14.819,-33.074 33.073,-33.074c18.254,0 33.073,14.82 33.073,33.074c0,18.253 -14.819,33.073 -33.073,33.073c-18.254,-0 -33.073,-14.82 -33.073,-33.073Z" style="fill-opacity:0.5;"></path> </g> </g></svg>